<?xml version="1.0" standalone="no"?>
<!DOCTYPE svg PUBLIC "-//W3C//DTD SVG 20010904//EN"
 "http://www.w3.org/TR/2001/REC-SVG-20010904/DTD/svg10.dtd">
<svg version="1.0" xmlns="http://www.w3.org/2000/svg"
 width="544.000000pt" height="333.000000pt" viewBox="0 0 544.000000 333.000000"
 preserveAspectRatio="xMidYMid meet">

<g transform="translate(0.000000,333.000000) scale(0.100000,-0.100000)"
fill="#000000" stroke="none">
<path d="M4475 3251 c-64 -63 -75 -77 -75 -97 -1 -10 -12 -32 -26 -49 l-24
-30 -69 73 c-37 39 -72 72 -78 72 -6 0 -16 7 -23 15 -21 25 -47 17 -83 -26
-35 -40 -35 -40 -39 -157 -2 -64 -7 -123 -11 -130 -7 -10 -349 -13 -1811 -11
l-1803 1 -34 -21 c-19 -12 -42 -21 -51 -21 -9 0 -42 -25 -72 -55 -40 -41 -57
-66 -62 -93 -3 -20 -12 -55 -19 -77 -8 -25 -13 -107 -14 -218 -2 -122 -7 -192
-17 -225 -8 -26 -17 -87 -20 -137 -4 -49 -13 -102 -20 -117 -8 -15 -14 -54
-14 -88 0 -34 -6 -73 -14 -88 -7 -15 -16 -55 -19 -90 -3 -34 -12 -74 -21 -87
-9 -14 -16 -45 -16 -75 0 -37 -5 -55 -20 -70 -15 -15 -20 -33 -20 -73 0 -48 2
-53 29 -65 26 -11 33 -11 55 4 17 11 26 25 26 43 0 15 7 36 15 47 8 10 15 41
15 67 0 26 7 62 16 79 9 17 19 59 21 92 3 34 12 73 19 88 8 15 14 51 14 81 0
30 6 70 14 88 7 19 16 73 19 121 3 48 12 98 19 110 7 14 15 80 19 163 3 77 12
196 19 265 l12 125 46 48 c26 26 55 47 67 47 12 0 26 5 33 12 9 9 15 9 23 1 8
-8 6 -19 -5 -41 -13 -25 -16 -65 -16 -201 0 -101 4 -181 11 -198 6 -15 15 -80
19 -144 4 -64 13 -126 20 -138 16 -31 31 -358 24 -521 -5 -100 -11 -146 -25
-177 -11 -23 -19 -55 -19 -72 0 -16 -4 -32 -9 -35 -5 -3 -16 -28 -25 -56 -13
-41 -15 -62 -6 -113 5 -34 10 -99 10 -143 0 -50 6 -96 15 -117 10 -25 15 -71
15 -140 0 -64 6 -122 15 -153 8 -27 18 -101 21 -164 3 -63 12 -135 20 -159 8
-25 14 -66 14 -93 0 -80 15 -88 168 -88 181 0 171 -15 174 260 3 183 5 215 18
215 10 0 17 -14 21 -42 3 -23 10 -47 16 -55 6 -7 14 -29 18 -48 4 -19 14 -44
21 -55 8 -11 14 -31 14 -45 0 -14 7 -34 15 -44 8 -11 15 -29 15 -40 0 -12 9
-34 20 -51 11 -16 20 -39 20 -51 0 -40 16 -44 196 -44 l172 0 17 26 c13 20 15
32 7 48 -6 11 -13 45 -16 74 -3 29 -12 62 -21 74 -9 13 -15 44 -15 73 0 30 -6
59 -15 71 -8 10 -15 39 -15 64 0 25 -9 65 -20 89 -11 24 -20 62 -20 85 0 23
-7 51 -15 62 -8 10 -15 37 -15 60 l0 41 92 6 c60 4 97 2 105 -5 7 -6 13 -31
13 -57 0 -25 9 -68 19 -96 15 -41 24 -51 46 -53 32 -4 65 22 65 52 0 12 -7 39
-15 61 -32 90 -6 155 62 155 17 0 42 9 55 20 l25 19 27 -27 c14 -16 26 -34 26
-41 0 -7 13 -30 30 -51 16 -20 34 -49 40 -64 9 -24 14 -27 52 -24 42 3 43 4
46 42 2 28 -2 43 -16 56 -11 10 -29 39 -42 64 -12 25 -25 46 -30 46 -4 0 -10
10 -13 21 -4 16 7 35 49 78 30 31 54 63 54 72 0 8 13 27 28 42 l28 27 420 -2
419 -3 23 -45 c16 -32 22 -62 22 -110 0 -39 6 -73 14 -85 7 -11 16 -56 18
-100 3 -46 12 -93 22 -110 10 -19 16 -54 16 -95 0 -38 6 -77 15 -94 9 -16 15
-55 15 -90 0 -36 7 -73 16 -91 9 -16 18 -64 21 -105 3 -41 11 -88 18 -105 7
-16 15 -39 17 -50 3 -18 12 -20 114 -23 159 -4 153 -14 156 248 3 174 5 205
18 205 11 0 17 -16 21 -55 4 -30 14 -68 23 -85 9 -16 16 -46 16 -65 0 -19 7
-44 15 -54 8 -11 15 -37 15 -59 0 -21 7 -53 16 -70 9 -18 20 -39 24 -47 6 -12
31 -16 112 -18 99 -3 105 -2 127 22 l23 24 5 524 6 523 54 53 c29 29 53 58 53
65 0 7 13 28 30 47 16 19 29 43 30 53 0 9 9 25 20 34 11 10 20 25 20 35 0 9 5
20 10 23 6 4 17 21 25 38 21 45 74 140 86 151 5 6 9 18 9 28 0 10 9 26 20 35
11 10 20 27 20 39 0 11 9 29 20 39 11 10 20 26 20 35 0 10 7 23 15 30 8 7 15
21 15 31 0 10 4 20 9 24 6 3 31 47 57 98 26 50 54 105 62 122 18 33 60 75 76
75 6 0 25 -9 41 -20 25 -17 47 -20 137 -20 96 0 112 3 155 26 26 14 52 29 57
35 15 14 109 10 130 -6 11 -8 34 -15 52 -15 17 0 55 -7 82 -16 48 -16 53 -16
76 0 14 9 32 16 40 16 16 0 96 88 96 106 0 6 9 19 20 29 11 10 20 26 20 35 0
10 7 23 15 30 10 8 15 31 15 65 0 50 -3 56 -46 99 -25 25 -50 46 -56 46 -6 0
-29 15 -52 33 -23 19 -52 40 -66 47 -14 7 -82 69 -152 138 -120 119 -144 138
-195 161 -13 6 -23 15 -23 21 0 5 -11 10 -24 10 -13 0 -35 9 -49 20 -14 11
-32 20 -39 20 -8 0 -24 10 -36 23 -19 20 -22 35 -22 98 0 66 -3 78 -23 97 -16
15 -36 22 -63 22 -32 0 -46 -7 -79 -39z m59 -167 c3 -9 6 -24 6 -34 0 -24 88
-100 116 -100 12 0 33 -9 47 -20 14 -11 34 -20 44 -20 11 0 32 -13 49 -28 16
-16 87 -79 158 -141 70 -62 137 -122 147 -132 10 -10 38 -30 61 -45 61 -38
138 -104 138 -118 0 -6 -9 -17 -20 -24 -11 -7 -20 -21 -20 -31 0 -10 -20 -39
-44 -65 l-43 -47 -69 7 c-38 4 -78 13 -89 20 -29 20 -191 19 -199 -1 -3 -8
-14 -15 -24 -15 -11 0 -31 -9 -45 -20 -35 -28 -147 -28 -200 0 -26 14 -56 20
-100 20 -73 0 -87 -10 -133 -95 -15 -28 -38 -68 -50 -90 -13 -22 -26 -47 -30
-55 -3 -8 -10 -22 -15 -30 -5 -8 -16 -29 -24 -47 -8 -17 -19 -34 -25 -38 -5
-3 -10 -14 -10 -24 0 -10 -9 -26 -20 -36 -11 -10 -20 -28 -20 -40 0 -13 -7
-25 -15 -29 -8 -3 -15 -16 -15 -29 0 -13 -9 -32 -20 -42 -11 -10 -20 -26 -20
-36 0 -10 -4 -20 -9 -23 -5 -3 -18 -23 -29 -43 -54 -104 -74 -139 -83 -148 -5
-5 -9 -17 -9 -26 0 -9 -6 -22 -14 -28 -8 -7 -24 -31 -36 -54 -12 -23 -32 -54
-44 -69 -11 -15 -29 -39 -40 -53 -10 -15 -31 -31 -47 -37 -29 -10 -29 -11 -29
-91 0 -183 -21 -886 -28 -932 -6 -41 -11 -51 -29 -53 -28 -4 -53 32 -53 78 0
20 -7 45 -15 56 -8 10 -15 35 -15 54 0 19 -9 52 -20 73 -11 20 -20 54 -20 76
0 22 -6 44 -15 51 -9 8 -15 30 -15 59 0 27 -7 56 -17 71 -9 13 -19 40 -23 59
-5 35 -7 36 -50 36 -41 0 -45 -2 -48 -27 -2 -14 -10 -32 -18 -38 -8 -8 -14
-30 -14 -56 0 -24 -9 -60 -19 -81 -16 -32 -20 -67 -25 -217 -4 -130 -9 -182
-18 -188 -43 -27 -78 19 -78 102 0 28 -9 76 -20 107 -12 33 -20 83 -20 118 0
35 -6 69 -14 80 -7 11 -16 56 -18 100 -3 46 -12 93 -22 110 -9 18 -16 54 -16
88 0 32 -7 74 -15 94 -8 19 -15 59 -15 88 0 43 -10 87 -46 202 -3 10 -114 13
-513 13 l-510 0 -20 -26 c-12 -15 -21 -36 -21 -47 0 -26 -143 -167 -169 -167
-10 0 -30 -9 -44 -20 -14 -11 -39 -20 -56 -20 -18 0 -42 -6 -54 -14 -12 -7
-65 -17 -117 -21 -114 -10 -115 -10 -212 0 -57 6 -81 5 -93 -5 -20 -16 -19
-69 1 -98 9 -13 18 -51 21 -85 3 -34 12 -71 19 -82 8 -11 14 -41 14 -67 0 -29
8 -63 20 -85 11 -21 20 -57 20 -83 1 -25 7 -56 15 -70 8 -14 14 -44 15 -67 0
-23 9 -61 21 -83 30 -58 17 -70 -76 -70 -69 0 -75 2 -99 31 -14 17 -26 41 -26
53 0 12 -7 31 -15 42 -8 10 -15 31 -15 45 0 15 -6 32 -14 38 -8 6 -17 31 -20
56 -4 24 -14 49 -21 55 -8 7 -15 27 -15 45 0 18 -7 38 -15 45 -8 7 -15 22 -15
34 0 12 -9 38 -20 59 -11 20 -20 47 -20 60 0 13 -7 32 -15 43 -8 10 -15 31
-15 45 0 15 -9 38 -20 52 -11 14 -20 37 -20 51 0 30 -29 49 -68 44 l-27 -3 -5
-383 c-5 -365 -6 -384 -24 -398 -24 -17 -88 -18 -104 -2 -7 7 -12 28 -12 48 0
20 -6 56 -14 81 -8 24 -17 96 -20 159 -3 63 -12 140 -21 170 -8 30 -15 96 -15
146 0 51 -6 112 -15 140 -21 69 -21 307 0 324 8 7 15 27 15 44 0 17 7 42 16
55 10 14 20 58 25 114 4 51 12 110 18 132 13 50 13 146 0 205 -5 25 -14 108
-19 185 -5 79 -15 159 -24 184 -10 27 -16 78 -16 135 -1 53 -7 108 -15 131
-21 56 -20 282 0 309 8 11 15 27 15 35 0 8 10 25 22 38 l21 23 1753 0 1753 0
12 21 c6 13 10 64 9 128 -1 58 -2 112 -1 119 2 27 29 9 86 -57 36 -41 70 -71
86 -74 38 -9 82 6 95 31 6 12 18 30 27 40 10 10 17 28 17 40 0 35 52 56 64 26z"/>
</g>
</svg>
